<svg width="562" height="121" viewBox="0 0 562 121" fill="none" xmlns="http://www.w3.org/2000/svg">
<rect x="42.5781" y="46.3838" width="107.869" height="64.7217" transform="rotate(0.744827 42.5781 46.3838)" fill="#D9D9D9"/>
<rect x="41.8945" y="98.9663" width="107.869" height="12.1353" transform="rotate(0.744827 41.8945 98.9663)" fill="#A8A8A8"/>
<path d="M78.0977 50.5588C78.5508 44.0408 77.061 37.5349 73.8165 31.8636C70.5721 26.1924 65.7188 21.6106 59.8704 18.6976C54.022 15.7846 47.4411 14.6713 40.96 15.4985C34.4788 16.3256 28.3885 19.0561 23.4592 23.3446C18.5299 27.6331 14.9829 33.287 13.2669 39.5913C11.5509 45.8956 11.7429 52.5673 13.8185 58.7625C15.8942 64.9577 19.7604 70.3983 24.9281 74.3963C30.0959 78.3943 36.3331 80.77 42.8511 81.2232L45.1422 48.2677L78.0977 50.5588Z" fill="#D9D9D9"/>
<circle cx="97.3489" cy="34.2849" r="33.035" transform="rotate(0.744827 97.3489 34.2849)" fill="#D9D9D9"/>
<path d="M149.015 81.8262C155.568 82.0041 162.002 80.2173 167.505 76.6918C173.007 73.1664 177.33 68.0605 179.928 62.02C182.525 55.9795 183.28 49.2756 182.097 42.756C180.914 36.2365 177.846 30.1941 173.282 25.393C168.717 20.5919 162.861 17.2477 156.453 15.7833C150.045 14.319 143.374 14.8001 137.283 17.1661C131.192 19.532 125.954 23.6764 122.233 29.0751C118.511 34.4739 116.473 40.8846 116.376 47.4965L149.507 48.3958L149.015 81.8262Z" fill="#D9D9D9"/>
<rect x="67.7568" y="80.4243" width="29.6641" height="12.1353" rx="6" transform="rotate(-89.2552 67.7568 80.4243)" fill="#A8A8A8"/>
<rect x="93.373" y="80.7568" width="29.6641" height="12.1353" rx="6" transform="rotate(-89.2552 93.373 80.7568)" fill="#A8A8A8"/>
<rect x="120.339" y="81.1069" width="29.6641" height="12.1353" rx="6" transform="rotate(-89.2552 120.339 81.1069)" fill="#A8A8A8"/>
<path d="M214.469 86.0938L207.125 56.9062V88.5312C207.125 90.2812 206.729 91.5938 205.938 92.4688C205.167 93.3438 204.135 93.7812 202.844 93.7812C201.594 93.7812 200.573 93.3542 199.781 92.5C198.99 91.625 198.594 90.3021 198.594 88.5312V52.2812C198.594 50.2812 199.115 48.9375 200.156 48.25C201.198 47.5417 202.604 47.1875 204.375 47.1875H207.25C208.979 47.1875 210.229 47.3438 211 47.6562C211.792 47.9688 212.375 48.5312 212.75 49.3438C213.125 50.1562 213.552 51.4792 214.031 53.3125L220.688 78.4062L227.344 53.3125C227.823 51.4792 228.25 50.1562 228.625 49.3438C229 48.5312 229.573 47.9688 230.344 47.6562C231.135 47.3438 232.396 47.1875 234.125 47.1875H237C238.771 47.1875 240.177 47.5417 241.219 48.25C242.26 48.9375 242.781 50.2812 242.781 52.2812V88.5312C242.781 90.2812 242.385 91.5938 241.594 92.4688C240.823 93.3438 239.781 93.7812 238.469 93.7812C237.24 93.7812 236.229 93.3438 235.438 92.4688C234.646 91.5938 234.25 90.2812 234.25 88.5312V56.9062L226.906 86.0938C226.427 87.9896 226.031 89.3854 225.719 90.2812C225.427 91.1562 224.875 91.9583 224.062 92.6875C223.25 93.4167 222.125 93.7812 220.688 93.7812C219.604 93.7812 218.688 93.5417 217.938 93.0625C217.188 92.6042 216.604 92.0104 216.188 91.2812C215.771 90.5521 215.438 89.75 215.188 88.875C214.958 87.9792 214.719 87.0521 214.469 86.0938ZM259.594 94.8438L260.375 92.9375L249.875 66.5C249.229 64.9792 248.906 63.875 248.906 63.1875C248.906 62.4583 249.094 61.7812 249.469 61.1562C249.844 60.5312 250.354 60.0312 251 59.6562C251.667 59.2812 252.354 59.0938 253.062 59.0938C254.292 59.0938 255.219 59.4896 255.844 60.2812C256.469 61.0521 257.021 62.1667 257.5 63.625L264.719 84.625L271.562 65.0938C272.104 63.5104 272.594 62.2708 273.031 61.375C273.469 60.4792 273.927 59.875 274.406 59.5625C274.906 59.25 275.604 59.0938 276.5 59.0938C277.146 59.0938 277.76 59.2708 278.344 59.625C278.948 59.9583 279.406 60.4167 279.719 61C280.052 61.5833 280.219 62.1979 280.219 62.8438C280.135 63.2396 280 63.8021 279.812 64.5312C279.625 65.2604 279.396 66 279.125 66.75L268 95.875C267.042 98.4375 266.104 100.448 265.188 101.906C264.271 103.365 263.052 104.479 261.531 105.25C260.031 106.042 258 106.438 255.438 106.438C252.938 106.438 251.062 106.167 249.812 105.625C248.562 105.083 247.938 104.094 247.938 102.656C247.938 101.677 248.229 100.917 248.812 100.375C249.417 99.8542 250.302 99.5938 251.469 99.5938C251.927 99.5938 252.375 99.6562 252.812 99.7812C253.354 99.9062 253.823 99.9688 254.219 99.9688C255.198 99.9688 255.969 99.8229 256.531 99.5312C257.094 99.2396 257.594 98.7292 258.031 98C258.49 97.2917 259.01 96.2396 259.594 94.8438ZM326.031 78.5312C326.031 79.9896 325.667 81.5729 324.938 83.2812C324.229 84.9688 323.104 86.6354 321.562 88.2812C320.021 89.9062 318.052 91.2292 315.656 92.25C313.26 93.2708 310.469 93.7812 307.281 93.7812C304.865 93.7812 302.667 93.5521 300.688 93.0938C298.708 92.6354 296.906 91.9271 295.281 90.9688C293.677 89.9896 292.198 88.7083 290.844 87.125C289.635 85.6875 288.604 84.0833 287.75 82.3125C286.896 80.5208 286.25 78.6146 285.812 76.5938C285.396 74.5729 285.188 72.4271 285.188 70.1562C285.188 66.4688 285.719 63.1667 286.781 60.25C287.865 57.3333 289.406 54.8438 291.406 52.7812C293.406 50.6979 295.75 49.1146 298.438 48.0312C301.125 46.9479 303.99 46.4062 307.031 46.4062C310.74 46.4062 314.042 47.1458 316.938 48.625C319.833 50.1042 322.052 51.9375 323.594 54.125C325.135 56.2917 325.906 58.3438 325.906 60.2812C325.906 61.3438 325.531 62.2812 324.781 63.0938C324.031 63.9062 323.125 64.3125 322.062 64.3125C320.875 64.3125 319.979 64.0312 319.375 63.4688C318.792 62.9062 318.135 61.9375 317.406 60.5625C316.198 58.2917 314.771 56.5938 313.125 55.4688C311.5 54.3438 309.49 53.7812 307.094 53.7812C303.281 53.7812 300.24 55.2292 297.969 58.125C295.719 61.0208 294.594 65.1354 294.594 70.4688C294.594 74.0312 295.094 77 296.094 79.375C297.094 81.7292 298.51 83.4896 300.344 84.6562C302.177 85.8229 304.323 86.4062 306.781 86.4062C309.448 86.4062 311.698 85.75 313.531 84.4375C315.385 83.1042 316.781 81.1562 317.719 78.5938C318.115 77.3854 318.604 76.4062 319.188 75.6562C319.771 74.8854 320.708 74.5 322 74.5C323.104 74.5 324.052 74.8854 324.844 75.6562C325.635 76.4271 326.031 77.3854 326.031 78.5312ZM342.125 51.5938V64.25C343.208 63 344.26 62.0104 345.281 61.2812C346.323 60.5521 347.469 60.0104 348.719 59.6562C349.969 59.2812 351.312 59.0938 352.75 59.0938C354.917 59.0938 356.833 59.5521 358.5 60.4688C360.188 61.3854 361.51 62.7188 362.469 64.4688C363.073 65.4896 363.479 66.6354 363.688 67.9062C363.896 69.1562 364 70.6042 364 72.25V88.5938C364 90.3021 363.604 91.5938 362.812 92.4688C362.042 93.3438 361.01 93.7812 359.719 93.7812C356.906 93.7812 355.5 92.0521 355.5 88.5938V74.1875C355.5 71.4583 355.094 69.3646 354.281 67.9062C353.469 66.4271 351.927 65.6875 349.656 65.6875C348.135 65.6875 346.76 66.125 345.531 67C344.323 67.8542 343.417 69.0312 342.812 70.5312C342.354 71.8021 342.125 74.0625 342.125 77.3125V88.5938C342.125 90.2812 341.74 91.5729 340.969 92.4688C340.219 93.3438 339.167 93.7812 337.812 93.7812C335 93.7812 333.594 92.0521 333.594 88.5938V51.5938C333.594 49.8646 333.958 48.5729 334.688 47.7188C335.438 46.8438 336.479 46.4062 337.812 46.4062C339.167 46.4062 340.219 46.8438 340.969 47.7188C341.74 48.5938 342.125 49.8854 342.125 51.5938ZM396.281 78.5312H379.594C379.615 80.4688 380 82.1771 380.75 83.6562C381.521 85.1354 382.531 86.25 383.781 87C385.052 87.75 386.448 88.125 387.969 88.125C388.99 88.125 389.917 88.0104 390.75 87.7812C391.604 87.5312 392.427 87.1562 393.219 86.6562C394.01 86.1354 394.74 85.5833 395.406 85C396.073 84.4167 396.938 83.625 398 82.625C398.438 82.25 399.062 82.0625 399.875 82.0625C400.75 82.0625 401.458 82.3021 402 82.7812C402.542 83.2604 402.812 83.9375 402.812 84.8125C402.812 85.5833 402.51 86.4896 401.906 87.5312C401.302 88.5521 400.385 89.5417 399.156 90.5C397.948 91.4375 396.417 92.2188 394.562 92.8438C392.729 93.4688 390.615 93.7812 388.219 93.7812C382.74 93.7812 378.479 92.2188 375.438 89.0938C372.396 85.9688 370.875 81.7292 370.875 76.375C370.875 73.8542 371.25 71.5208 372 69.375C372.75 67.2083 373.844 65.3542 375.281 63.8125C376.719 62.2708 378.49 61.0938 380.594 60.2812C382.698 59.4479 385.031 59.0312 387.594 59.0312C390.927 59.0312 393.781 59.7396 396.156 61.1562C398.552 62.5521 400.344 64.3646 401.531 66.5938C402.719 68.8229 403.312 71.0938 403.312 73.4062C403.312 75.5521 402.698 76.9479 401.469 77.5938C400.24 78.2188 398.51 78.5312 396.281 78.5312ZM379.594 73.6875H395.062C394.854 70.7708 394.062 68.5938 392.688 67.1562C391.333 65.6979 389.542 64.9688 387.312 64.9688C385.188 64.9688 383.438 65.7083 382.062 67.1875C380.708 68.6458 379.885 70.8125 379.594 73.6875ZM409.844 59.8438H411.875V57.2812C411.875 54.6146 412.208 52.5 412.875 50.9375C413.562 49.3542 414.708 48.2083 416.312 47.5C417.938 46.7708 420.156 46.4062 422.969 46.4062C427.948 46.4062 430.438 47.625 430.438 50.0625C430.438 50.8542 430.177 51.5312 429.656 52.0938C429.135 52.6562 428.521 52.9375 427.812 52.9375C427.479 52.9375 426.906 52.875 426.094 52.75C425.281 52.625 424.594 52.5625 424.031 52.5625C422.49 52.5625 421.5 53.0208 421.062 53.9375C420.625 54.8333 420.406 56.125 420.406 57.8125V59.8438H422.5C425.75 59.8438 427.375 60.8229 427.375 62.7812C427.375 64.1771 426.938 65.0625 426.062 65.4375C425.208 65.8125 424.021 66 422.5 66H420.406V88.5938C420.406 90.2812 420 91.5729 419.188 92.4688C418.396 93.3438 417.365 93.7812 416.094 93.7812C414.885 93.7812 413.875 93.3438 413.062 92.4688C412.271 91.5729 411.875 90.2812 411.875 88.5938V66H409.531C408.26 66 407.281 65.7188 406.594 65.1562C405.906 64.5729 405.562 63.8229 405.562 62.9062C405.562 60.8646 406.99 59.8438 409.844 59.8438ZM459.062 52.0312V76.0312C459.062 78.1146 458.969 79.8854 458.781 81.3438C458.615 82.8021 458.219 84.2812 457.594 85.7812C456.552 88.3021 454.833 90.2708 452.438 91.6875C450.042 93.0833 447.125 93.7812 443.688 93.7812C440.583 93.7812 437.99 93.2917 435.906 92.3125C433.844 91.3333 432.177 89.75 430.906 87.5625C430.24 86.3958 429.698 85.0521 429.281 83.5312C428.865 82.0104 428.656 80.5625 428.656 79.1875C428.656 77.7292 429.062 76.6146 429.875 75.8438C430.688 75.0729 431.729 74.6875 433 74.6875C434.229 74.6875 435.156 75.0417 435.781 75.75C436.406 76.4583 436.885 77.5625 437.219 79.0625C437.573 80.6667 437.927 81.9479 438.281 82.9062C438.635 83.8646 439.229 84.6875 440.062 85.375C440.896 86.0625 442.083 86.4062 443.625 86.4062C447.729 86.4062 449.781 83.3958 449.781 77.375V52.0312C449.781 50.1562 450.188 48.75 451 47.8125C451.833 46.875 452.958 46.4062 454.375 46.4062C455.812 46.4062 456.948 46.875 457.781 47.8125C458.635 48.75 459.062 50.1562 459.062 52.0312ZM492.344 78.5312H475.656C475.677 80.4688 476.062 82.1771 476.812 83.6562C477.583 85.1354 478.594 86.25 479.844 87C481.115 87.75 482.51 88.125 484.031 88.125C485.052 88.125 485.979 88.0104 486.812 87.7812C487.667 87.5312 488.49 87.1562 489.281 86.6562C490.073 86.1354 490.802 85.5833 491.469 85C492.135 84.4167 493 83.625 494.062 82.625C494.5 82.25 495.125 82.0625 495.938 82.0625C496.812 82.0625 497.521 82.3021 498.062 82.7812C498.604 83.2604 498.875 83.9375 498.875 84.8125C498.875 85.5833 498.573 86.4896 497.969 87.5312C497.365 88.5521 496.448 89.5417 495.219 90.5C494.01 91.4375 492.479 92.2188 490.625 92.8438C488.792 93.4688 486.677 93.7812 484.281 93.7812C478.802 93.7812 474.542 92.2188 471.5 89.0938C468.458 85.9688 466.938 81.7292 466.938 76.375C466.938 73.8542 467.312 71.5208 468.062 69.375C468.812 67.2083 469.906 65.3542 471.344 63.8125C472.781 62.2708 474.552 61.0938 476.656 60.2812C478.76 59.4479 481.094 59.0312 483.656 59.0312C486.99 59.0312 489.844 59.7396 492.219 61.1562C494.615 62.5521 496.406 64.3646 497.594 66.5938C498.781 68.8229 499.375 71.0938 499.375 73.4062C499.375 75.5521 498.76 76.9479 497.531 77.5938C496.302 78.2188 494.573 78.5312 492.344 78.5312ZM475.656 73.6875H491.125C490.917 70.7708 490.125 68.5938 488.75 67.1562C487.396 65.6979 485.604 64.9688 483.375 64.9688C481.25 64.9688 479.5 65.7083 478.125 67.1875C476.771 68.6458 475.948 70.8125 475.656 73.6875ZM505.906 59.8438H507.938V57.2812C507.938 54.6146 508.271 52.5 508.938 50.9375C509.625 49.3542 510.771 48.2083 512.375 47.5C514 46.7708 516.219 46.4062 519.031 46.4062C524.01 46.4062 526.5 47.625 526.5 50.0625C526.5 50.8542 526.24 51.5312 525.719 52.0938C525.198 52.6562 524.583 52.9375 523.875 52.9375C523.542 52.9375 522.969 52.875 522.156 52.75C521.344 52.625 520.656 52.5625 520.094 52.5625C518.552 52.5625 517.562 53.0208 517.125 53.9375C516.688 54.8333 516.469 56.125 516.469 57.8125V59.8438H518.562C521.812 59.8438 523.438 60.8229 523.438 62.7812C523.438 64.1771 523 65.0625 522.125 65.4375C521.271 65.8125 520.083 66 518.562 66H516.469V88.5938C516.469 90.2812 516.062 91.5729 515.25 92.4688C514.458 93.3438 513.427 93.7812 512.156 93.7812C510.948 93.7812 509.938 93.3438 509.125 92.4688C508.333 91.5729 507.938 90.2812 507.938 88.5938V66H505.594C504.323 66 503.344 65.7188 502.656 65.1562C501.969 64.5729 501.625 63.8229 501.625 62.9062C501.625 60.8646 503.052 59.8438 505.906 59.8438ZM529.594 59.8438H531.625V57.2812C531.625 54.6146 531.958 52.5 532.625 50.9375C533.312 49.3542 534.458 48.2083 536.062 47.5C537.688 46.7708 539.906 46.4062 542.719 46.4062C547.698 46.4062 550.188 47.625 550.188 50.0625C550.188 50.8542 549.927 51.5312 549.406 52.0938C548.885 52.6562 548.271 52.9375 547.562 52.9375C547.229 52.9375 546.656 52.875 545.844 52.75C545.031 52.625 544.344 52.5625 543.781 52.5625C542.24 52.5625 541.25 53.0208 540.812 53.9375C540.375 54.8333 540.156 56.125 540.156 57.8125V59.8438H542.25C545.5 59.8438 547.125 60.8229 547.125 62.7812C547.125 64.1771 546.688 65.0625 545.812 65.4375C544.958 65.8125 543.771 66 542.25 66H540.156V88.5938C540.156 90.2812 539.75 91.5729 538.938 92.4688C538.146 93.3438 537.115 93.7812 535.844 93.7812C534.635 93.7812 533.625 93.3438 532.812 92.4688C532.021 91.5729 531.625 90.2812 531.625 88.5938V66H529.281C528.01 66 527.031 65.7188 526.344 65.1562C525.656 64.5729 525.312 63.8229 525.312 62.9062C525.312 60.8646 526.74 59.8438 529.594 59.8438Z" fill="url(#paint0_linear_30_134)"/>
<defs>
<linearGradient id="paint0_linear_30_134" x1="378" y1="32" x2="378" y2="121" gradientUnits="userSpaceOnUse">
<stop stop-color="#008080"/>
<stop offset="0.0001" stop-color="#007D7D"/>
<stop offset="1" stop-color="#8DA3A3"/>
</linearGradient>
</defs>
</svg>
