<svg width="352" height="204" viewBox="0 0 352 204" fill="none" xmlns="http://www.w3.org/2000/svg">
<rect x="76.7554" y="83.6162" width="194.456" height="116.674" transform="rotate(0.744827 76.7554 83.6162)" fill="#D9D9D9"/>
<rect x="75.522" y="178.406" width="194.456" height="21.8763" transform="rotate(0.744827 75.522 178.406)" fill="#A8A8A8"/>
<path d="M140.786 91.1421C141.603 79.3922 138.918 67.6639 133.069 57.4403C127.22 47.2168 118.471 38.9571 107.928 33.7059C97.3852 28.4547 85.5219 26.4478 73.8383 27.9389C62.1548 29.4301 51.1758 34.3523 42.2897 42.0831C33.4036 49.814 27.0096 60.0062 23.9161 71.371C20.8226 82.7359 21.1687 94.7628 24.9105 105.931C28.6523 117.099 35.6218 126.907 44.9377 134.114C54.2536 141.321 65.4975 145.604 77.2474 146.421L81.3776 87.012L140.786 91.1421Z" fill="#D9D9D9"/>
<circle cx="175.491" cy="61.8052" r="59.5522" transform="rotate(0.744827 175.491 61.8052)" fill="#D9D9D9"/>
<path d="M268.628 147.508C280.441 147.829 292.04 144.608 301.959 138.252C311.878 131.897 319.672 122.693 324.354 111.803C329.037 100.914 330.398 88.8289 328.265 77.0762C326.133 65.3234 320.602 54.4308 312.374 45.7759C304.145 37.1209 293.587 31.0924 282.036 28.4526C270.485 25.8127 258.458 26.6802 247.478 30.9452C236.497 35.2103 227.056 42.6814 220.348 52.4137C213.639 62.146 209.965 73.7025 209.79 85.6218L269.515 87.2431L268.628 147.508Z" fill="#D9D9D9"/>
<rect x="122.145" y="144.98" width="53.4754" height="21.8763" rx="6" transform="rotate(-89.2552 122.145 144.98)" fill="#A8A8A8"/>
<rect x="168.323" y="145.58" width="53.4754" height="21.8763" rx="6" transform="rotate(-89.2552 168.323 145.58)" fill="#A8A8A8"/>
<rect x="216.935" y="146.211" width="53.4754" height="21.8763" rx="6" transform="rotate(-89.2552 216.935 146.211)" fill="#A8A8A8"/>
</svg>
